<svg id="Layer_1" data-name="Layer 1" xmlns="http://www.w3.org/2000/svg" viewBox="0 0 512 512"><defs><style>.cls-1{fill:#1da049;}.cls-2{fill:#033333;}.cls-3{fill:none;stroke:#cd2027;}.cls-3,.cls-4{stroke-miterlimit:10;stroke-width:0.34px;}.cls-4{fill:#fff;stroke:#fff;}</style></defs><rect class="cls-1" width="512" height="512" rx="122.27"/><path class="cls-2" d="M252.35,143.2V263.78h116.7V143.2Zm106,99.68c0,3.73-.85,6.52-2.52,8.38A8.57,8.57,0,0,1,349.6,254a5.06,5.06,0,0,1-.55,0,8.49,8.49,0,0,1-6.54-2.8c-1.7-1.86-2.56-4.65-2.56-8.38V188.69a1.65,1.65,0,0,0-3.24-.42L330.15,214l-6,23.68q-1.55,6-2.52,8.89a12.37,12.37,0,0,1-3.61,5.15,10.61,10.61,0,0,1-7.28,2.33,11.09,11.09,0,0,1-5.93-1.5,10.88,10.88,0,0,1-3.78-3.82,22.26,22.26,0,0,1-2.12-5.16q-.78-2.84-1.58-5.89l-6-23.68-6.56-25.74a1.65,1.65,0,0,0-3.25.42v54.19q0,5.6-2.53,8.38a8.61,8.61,0,0,1-6.7,2.8,3,3,0,0,1-.42,0,8.45,8.45,0,0,1-6.19-2.75q-2.57-2.76-2.57-8.41V165.71q0-6.39,3.38-8.62a13.63,13.63,0,0,1,5.38-2,22.82,22.82,0,0,1,3.72-.27h6.2c3.73,0,6.43.33,8.12,1a7.4,7.4,0,0,1,1.42.76,7,7,0,0,1,2.32,2.83,55.34,55.34,0,0,1,2.76,8.45l12.77,47.51a1.65,1.65,0,0,0,3.18,0l12.76-47.51a57.69,57.69,0,0,1,2.76-8.45,7,7,0,0,1,2.34-2.83,7.32,7.32,0,0,1,1.41-.76c1.68-.66,4.4-1,8.12-1h6.2a22.91,22.91,0,0,1,3.72.27,13.63,13.63,0,0,1,5.38,2c2.24,1.49,3.37,4.36,3.37,8.62Z" transform="translate(0 0)"/><path class="cls-2" d="M405.45,304.62a31.07,31.07,0,0,0-30.57-25.28c-.51,0-1,0-1.55,0a1.72,1.72,0,0,0-.39,0h-3.89v-9.73H252.35v9.73h-3.89a2,2,0,0,0-2,1.94V291a2,2,0,0,0,2,1.94h3.89v7.78a3.9,3.9,0,0,0,3.9,3.89H365.16a3.89,3.89,0,0,0,3.89-3.89V293h5.83a17.65,17.65,0,0,1,11.52,4.32,17.5,17.5,0,0,1-2.48,28.17,17,17,0,0,1-3.72,1.7,17.67,17.67,0,0,1-5.32.82H334.24a4.17,4.17,0,0,0-1.19.17,4.11,4.11,0,0,0-2.9,3.93v32.65a4.09,4.09,0,0,0,4.09,4.09h5.43a4.1,4.1,0,0,0,4.1-4.09V341.57h31.11a31.12,31.12,0,0,0,30.57-36.95Zm-41.26-25.28h-107V273.5h107Z" transform="translate(0 0)"/><rect class="cls-3" x="257.22" y="273.5" width="106.97" height="5.83"/><rect class="cls-4" x="257.22" y="273.5" width="106.97" height="5.83"/><path class="cls-4" d="M358.35,165.71v77.17c0,3.73-.85,6.52-2.52,8.38A8.57,8.57,0,0,1,349.6,254a5.06,5.06,0,0,1-.55,0,8.49,8.49,0,0,1-6.54-2.8c-1.7-1.86-2.56-4.65-2.56-8.38V188.69a1.65,1.65,0,0,0-3.24-.42L330.15,214l-6,23.68q-1.55,6-2.52,8.89a12.37,12.37,0,0,1-3.61,5.15,10.61,10.61,0,0,1-7.28,2.33,11.09,11.09,0,0,1-5.93-1.5,10.88,10.88,0,0,1-3.78-3.82,22.26,22.26,0,0,1-2.12-5.16q-.78-2.84-1.58-5.89l-6-23.68-6.56-25.74a1.65,1.65,0,0,0-3.25.42v54.19q0,5.6-2.53,8.38a8.61,8.61,0,0,1-6.7,2.8,3,3,0,0,1-.42,0,8.45,8.45,0,0,1-6.19-2.75q-2.57-2.76-2.57-8.41V165.71q0-6.39,3.38-8.62a13.63,13.63,0,0,1,5.38-2,22.82,22.82,0,0,1,3.72-.27h6.2c3.73,0,6.43.33,8.12,1a7.4,7.4,0,0,1,1.42.76,7,7,0,0,1,2.32,2.83,55.34,55.34,0,0,1,2.76,8.45l12.77,47.51a1.65,1.65,0,0,0,3.18,0l12.76-47.51a57.69,57.69,0,0,1,2.76-8.45,7,7,0,0,1,2.34-2.83,7.32,7.32,0,0,1,1.41-.76c1.68-.66,4.4-1,8.12-1h6.2a22.91,22.91,0,0,1,3.72.27,13.63,13.63,0,0,1,5.38,2C357.22,158.58,358.35,161.45,358.35,165.71Z" transform="translate(0 0)"/><path class="cls-2" d="M149.37,279.34c-.06,1.45-.1,2.91-.1,4.37q0,4.68.44,9.24a95.17,95.17,0,0,0,1.82,11.67A96.58,96.58,0,0,0,159.9,328a97.73,97.73,0,0,0,28.92,34,95.82,95.82,0,0,0,10.59,6.8H134.68q-2.53-3.32-4.87-6.8a139.62,139.62,0,0,1-22.26-57.38c-.46-3-.81-6.06-1.06-9.13q-.49-5.82-.49-11.78t.49-11.77c.06-.78.13-1.55.21-2.33.32-3.27.76-6.52,1.31-9.72.34-2,.71-3.91,1.13-5.83a140.73,140.73,0,0,1,81.23-99.19A138.55,138.55,0,0,1,206.32,149a140.41,140.41,0,0,1,40.2-5.83v43.27a97.29,97.29,0,0,0-92.64,67.59c-.62,1.91-1.17,3.86-1.67,5.83a97.72,97.72,0,0,0-2.84,19.45Z" transform="translate(0 0)"/><path class="cls-4" d="M324.31,328V368.8H213.05A90.59,90.59,0,0,1,199.3,362a91.8,91.8,0,0,1-32.79-34Z" transform="translate(0 0)"/></svg>